<svg width="40" height="40" viewBox="0 0 40 40" fill="none" xmlns="http://www.w3.org/2000/svg">
<g id="upload">
<g id="Vector">
<path d="M27.8457 10.6735L21.179 3.83616C21.0242 3.67698 20.8402 3.55069 20.6378 3.46451C20.4353 3.37834 20.2182 3.33398 19.999 3.33398C19.7798 3.33398 19.5627 3.37834 19.3602 3.46451C19.1577 3.55069 18.9738 3.67698 18.819 3.83616L12.1523 10.6735C11.8398 10.9945 11.6644 11.4296 11.6647 11.8832C11.665 12.3368 11.841 12.7717 12.154 13.0922C12.4669 13.4127 12.8912 13.5926 13.3335 13.5923C13.7758 13.592 14.1998 13.4115 14.5123 13.0905L18.334 9.17099V23.8473C18.334 24.3007 18.5096 24.7354 18.8221 25.056C19.1347 25.3766 19.5586 25.5567 20.0007 25.5567C20.4427 25.5567 20.8666 25.3766 21.1792 25.056C21.4917 24.7354 21.6673 24.3007 21.6673 23.8473V9.17099L25.489 13.0905C25.8033 13.4019 26.2243 13.5742 26.6613 13.5703C27.0983 13.5664 27.5163 13.3866 27.8253 13.0697C28.1344 12.7527 28.3096 12.324 28.3134 11.8758C28.3172 11.4277 28.1493 10.9959 27.8457 10.6735Z" fill="#B3B9C6"/>
<path d="M33.334 22.9927H25.0007V23.8473C25.0007 25.2074 24.4739 26.5117 23.5362 27.4734C22.5985 28.4351 21.3267 28.9753 20.0007 28.9753C18.6746 28.9753 17.4028 28.4351 16.4651 27.4734C15.5274 26.5117 15.0007 25.2074 15.0007 23.8473V22.9927H6.66732C5.78326 22.9927 4.93542 23.3528 4.31029 23.994C3.68517 24.6351 3.33398 25.5046 3.33398 26.4113V33.2487C3.33398 34.1553 3.68517 35.0249 4.31029 35.666C4.93542 36.3071 5.78326 36.6673 6.66732 36.6673H33.334C34.218 36.6673 35.0659 36.3071 35.691 35.666C36.3161 35.0249 36.6673 34.1553 36.6673 33.2487V26.4113C36.6673 25.5046 36.3161 24.6351 35.691 23.994C35.0659 23.3528 34.218 22.9927 33.334 22.9927ZM29.1673 33.2487C28.6729 33.2487 28.1895 33.0983 27.7784 32.8165C27.3673 32.5348 27.0468 32.1344 26.8576 31.6659C26.6684 31.1973 26.6189 30.6818 26.7154 30.1844C26.8118 29.6871 27.0499 29.2302 27.3996 28.8716C27.7492 28.5131 28.1946 28.2689 28.6796 28.1699C29.1645 28.071 29.6672 28.1218 30.124 28.3158C30.5808 28.5099 30.9713 28.8385 31.246 29.2602C31.5207 29.6818 31.6673 30.1775 31.6673 30.6847C31.6673 31.3647 31.4039 32.0168 30.9351 32.4977C30.4662 32.9785 29.8304 33.2487 29.1673 33.2487Z" fill="#B3B9C6"/>
</g>
</g>
</svg>
